<svg width="92" height="18" viewBox="0 0 92 18" fill="none" xmlns="http://www.w3.org/2000/svg">
<path d="M7.92986 0.156963C9.26828 -0.0929273 10.6485 -0.0439063 11.9642 0.300187C13.2799 0.644304 14.4966 1.27448 15.5206 2.14219C15.6881 2.27885 15.8426 2.4281 15.9972 2.56475L13.8774 4.61494C13.7293 4.49074 13.5552 4.34795 13.3974 4.21752C12.2217 3.31091 10.7365 2.86079 9.23437 2.95601C7.97919 2.98618 6.76783 3.40705 5.78085 4.15539C4.71746 4.98936 4.00417 6.16709 3.77365 7.46995C3.46042 8.81015 3.56471 10.2098 4.07334 11.493C4.93036 13.5433 6.52507 14.7143 8.78995 15.0063C9.69422 15.1402 10.6185 15.07 11.4896 14.8005C12.3608 14.5309 13.1551 14.0694 13.8097 13.4531L13.8516 13.419L16.0391 15.4417C14.9151 16.5555 13.4896 17.3435 11.9248 17.7157C8.8673 18.4022 6.06422 17.8616 3.6221 15.9169C2.08101 14.6783 1.0523 12.9473 0.722642 11.0392C0.296563 9.09938 0.484807 7.08086 1.26355 5.2457C2.51363 2.38452 4.75634 0.675766 7.92986 0.156963Z" fill="url(#paint0_radial_2579_92)"/>
<path fill-rule="evenodd" clip-rule="evenodd" d="M35.8811 0.287383C37.128 0.287383 38.3753 0.287239 39.6221 0.305878C41.2507 0.312911 42.8655 0.594935 44.3933 1.13867C45.5382 1.53423 46.5599 2.20463 47.361 3.0869C48.1621 3.96912 48.7162 5.03403 48.9715 6.18046C49.4934 8.11936 49.4657 10.158 48.8911 12.083C48.1888 14.4067 46.5779 15.9724 44.2647 16.8858C43.2437 17.2571 42.1766 17.4988 41.0909 17.6038C39.319 17.8212 37.547 17.7186 35.7622 17.7404C35.7268 17.7373 35.6945 17.7281 35.6623 17.7219V0.287383H35.8811ZM39.9121 3.06793C39.5094 3.06793 39.1065 3.09271 38.7006 3.10824L38.7133 14.873C38.7648 14.873 38.8099 14.8976 38.8517 14.9039C38.8936 14.9101 39.0001 14.904 39.071 14.9195C40.2691 14.9673 41.4671 14.8216 42.6152 14.488C43.2833 14.3144 43.9011 13.9948 44.4206 13.5541C44.9402 13.1135 45.3478 12.5632 45.6116 11.9464C46.3627 10.2656 46.4462 8.377 45.8465 6.64048C45.6485 6.01152 45.315 5.4299 44.8675 4.93412C44.4199 4.43832 43.8684 4.03945 43.2496 3.76366C42.206 3.29145 41.0648 3.05365 39.9121 3.06793Z" fill="url(#paint1_radial_2579_92)"/>
<path d="M31.1981 17.7304H19.2416V14.8503H31.1981V17.7304Z" fill="url(#paint2_radial_2579_92)"/>
<path d="M91.3645 0.46997C89.1931 3.40253 87.025 6.33731 84.86 9.27401C84.7702 9.39925 84.7208 9.54763 84.7182 9.69989V17.4198L84.6987 17.7271H81.6604V9.74637C81.6651 9.57771 81.6107 9.4124 81.5059 9.27733C79.3365 6.34884 77.1668 3.41623 74.9975 0.479455C74.9588 0.426683 74.9269 0.373707 74.8722 0.299239C74.9304 0.286207 74.9895 0.277584 75.0491 0.274104H78.3901C78.4519 0.273085 78.513 0.289219 78.5655 0.32058C78.618 0.351979 78.6603 0.397646 78.6868 0.451474L83.0521 6.30423C83.094 6.36015 83.1427 6.41606 83.2007 6.49062C83.2522 6.42548 83.2971 6.37571 83.3357 6.31989C84.7877 4.35863 86.2385 2.39708 87.6883 0.435824C87.7134 0.385795 87.7533 0.343582 87.8023 0.314415C87.8514 0.285318 87.908 0.270434 87.9656 0.271258H91.5L91.3645 0.46997Z" fill="url(#paint3_radial_2579_92)"/>
<path d="M73.9522 3.18886H64.9307V7.53824H72.4216V10.4459L64.9117 10.4554V17.7247H61.8831V0.287383H73.9522V3.18886Z" fill="url(#paint4_radial_2579_92)"/>
<path d="M58.7868 2.93372H56.7894V15.0646H58.8901V17.7243H51.6181V15.0741H53.7125V2.95838H51.7375V0.283589H58.7868V2.93372Z" fill="url(#paint5_radial_2579_92)"/>
<path fill-rule="evenodd" clip-rule="evenodd" d="M25.3071 0.026069C27.0861 0.0399126 28.7883 0.727033 30.0466 1.93968C31.305 3.15245 32.0191 4.79366 32.0343 6.50911C32.0369 7.79477 31.6434 9.05239 30.9043 10.1224C30.1651 11.1925 29.1134 12.0275 27.882 12.5207C26.6508 13.014 25.2953 13.1435 23.9875 12.8935C22.6796 12.6435 21.4775 12.0249 20.5345 11.116C19.5915 10.2071 18.9494 9.04865 18.6895 7.7877C18.4297 6.52673 18.5635 5.21955 19.0745 4.03209C19.5855 2.84461 20.4508 1.83004 21.5602 1.11685C22.6696 0.403699 23.9738 0.0242268 25.3071 0.026069ZM25.3261 2.91522C24.8352 2.90907 24.3479 2.99682 23.8925 3.17369C23.437 3.35062 23.0222 3.61312 22.6727 3.94577C22.3233 4.2784 22.0459 4.67464 21.8565 5.11149C21.6671 5.54835 21.5695 6.01713 21.5695 6.49062C21.5752 7.43476 21.9631 8.33969 22.6503 9.01222C23.3376 9.68469 24.2702 10.0717 25.2491 10.0911C25.7412 10.1002 26.2303 10.0148 26.6876 9.83932C27.145 9.66378 27.5616 9.40187 27.9127 9.06913C28.2638 8.73642 28.5425 8.33941 28.7324 7.90152C28.9223 7.46359 29.0194 6.99327 29.0184 6.5186V6.50911C29.0288 6.03731 28.9406 5.56828 28.7592 5.12998C28.5777 4.69165 28.3069 4.29294 27.9624 3.95763C27.618 3.62233 27.2072 3.35707 26.7544 3.17796C26.3015 2.99885 25.8156 2.9097 25.3261 2.91522Z" fill="url(#paint6_radial_2579_92)"/>
<defs>
<radialGradient id="paint0_radial_2579_92" cx="0" cy="0" r="1" gradientTransform="matrix(16.7243 -18 91 21.246 0.499997 17.9839)" gradientUnits="userSpaceOnUse">
<stop stop-color="#00C4FA"/>
<stop offset="1" stop-color="#246FFF"/>
</radialGradient>
<radialGradient id="paint1_radial_2579_92" cx="0" cy="0" r="1" gradientTransform="matrix(16.7243 -18 91 21.246 0.499997 17.9839)" gradientUnits="userSpaceOnUse">
<stop stop-color="#00C4FA"/>
<stop offset="1" stop-color="#246FFF"/>
</radialGradient>
<radialGradient id="paint2_radial_2579_92" cx="0" cy="0" r="1" gradientTransform="matrix(16.7243 -18 91 21.246 0.499997 17.9839)" gradientUnits="userSpaceOnUse">
<stop stop-color="#00C4FA"/>
<stop offset="1" stop-color="#246FFF"/>
</radialGradient>
<radialGradient id="paint3_radial_2579_92" cx="0" cy="0" r="1" gradientTransform="matrix(16.7243 -18 91 21.246 0.499997 17.9839)" gradientUnits="userSpaceOnUse">
<stop stop-color="#00C4FA"/>
<stop offset="1" stop-color="#246FFF"/>
</radialGradient>
<radialGradient id="paint4_radial_2579_92" cx="0" cy="0" r="1" gradientTransform="matrix(16.7243 -18 91 21.246 0.499997 17.9839)" gradientUnits="userSpaceOnUse">
<stop stop-color="#00C4FA"/>
<stop offset="1" stop-color="#246FFF"/>
</radialGradient>
<radialGradient id="paint5_radial_2579_92" cx="0" cy="0" r="1" gradientTransform="matrix(16.7243 -18 91 21.246 0.499997 17.9839)" gradientUnits="userSpaceOnUse">
<stop stop-color="#00C4FA"/>
<stop offset="1" stop-color="#246FFF"/>
</radialGradient>
<radialGradient id="paint6_radial_2579_92" cx="0" cy="0" r="1" gradientTransform="matrix(16.7243 -18 91 21.246 0.499997 17.9839)" gradientUnits="userSpaceOnUse">
<stop stop-color="#00C4FA"/>
<stop offset="1" stop-color="#246FFF"/>
</radialGradient>
</defs>
</svg>
